<?xml version="1.0" encoding="utf-8"?>
<!-- Generator: Adobe Illustrator 20.1.0, SVG Export Plug-In . SVG Version: 6.00 Build 0)  -->
<svg version="1.1" id="Layer_1" xmlns="http://www.w3.org/2000/svg" xmlns:xlink="http://www.w3.org/1999/xlink" x="0px" y="0px"
	 viewBox="0 0 19.3 21.6" style="enable-background:new 0 0 19.3 21.6;" xml:space="preserve">
<style type="text/css">
	.st0{fill:none;stroke:#FFFFFF;stroke-miterlimit:10;}
</style>
<title>PoweredByContentful_DarkBackground_MonochromeLogo</title>
<path class="st0" d="M6.7,14.9L6.7,14.9c-2.3-2.3-2.3-5.9,0-8.2c0,0,0,0,0,0l0,0c0.9-0.9,0.9-2.3,0-3.2s-2.3-0.9-3.2,0
	c-1.9,1.9-3,4.6-3,7.3c0,2.7,1.1,5.3,3,7.3c0.9,0.9,2.3,0.9,3.2,0S7.6,15.8,6.7,14.9C6.7,14.9,6.7,14.9,6.7,14.9z"/>
<path class="st0" d="M6.7,6.7L6.7,6.7c2.3-2.3,5.9-2.3,8.2,0c0,0,0,0,0,0l0,0c0.9,0.9,2.3,0.9,3.2,0s0.9-2.3,0-3.2
	c-1.9-1.9-4.6-3-7.3-3c-2.7,0-5.3,1.1-7.3,3c-0.9,0.9-0.9,2.3,0,3.2S5.8,7.6,6.7,6.7z"/>
<path class="st0" d="M14.9,14.9L14.9,14.9c-2.3,2.3-5.9,2.3-8.2,0c0,0,0,0,0,0l0,0c-0.9-0.9-2.3-0.9-3.2,0s-0.9,2.3,0,3.2
	c1.9,1.9,4.6,3,7.3,3c2.7,0,5.3-1.1,7.3-3c0.9-0.9,0.9-2.3,0-3.2S15.8,14,14.9,14.9z"/>
<ellipse transform="matrix(0.7069 -0.7074 0.7074 0.7069 -2.103 5.1269)" class="st0" cx="5.1" cy="5.1" rx="2.3" ry="2.3"/>
<ellipse transform="matrix(0.7069 -0.7074 0.7074 0.7069 -10.1544 8.4609)" class="st0" cx="5.1" cy="16.5" rx="2.3" ry="2.3"/>
</svg>
