<svg xmlns="http://www.w3.org/2000/svg" width="978" height="279" viewBox="0 0 978 279">
	<defs></defs>
	<path
		id="kiinto."
		d="M0.078,0.107H22.83c18.118,0,26.213,4.235,26.213,22.332V146.423H63.691c6.167,0,14.263-1.155,18.5-7.316l40.09-61.991h54.353L126.91,151.043c-8.481,12.322-14.649,15.4-14.649,15.4v0.771s6.939,2.695,13.878,15.4L148.5,224.972c3.084,5.776,6.939,7.316,16.19,7.316h13.106v41.2H141.558c-16.576,0-23.129-2.7-30.838-16.942L77.954,194.939c-3.855-6.931-11.95-7.317-18.118-7.317H49.042v-0.368H0.086Zm209.36,247.2c0,18.482,7.709,26.183,25.827,26.183H258.1L258.008,103.3c0-18.1-7.709-26.183-25.827-26.183H210.034Zm82.686,0c0,18.482,7.71,26.183,25.828,26.183h23.1L340.7,103.3c0-18.1-7.71-26.183-25.827-26.183H291.9Zm272.69,26.183H541.762c-18.5,0-26.213-7.7-26.213-26.183V157.2c0-23.873-6.168-40.044-30.839-40.044-26.213,0-45.872,16.557-52.811,40.044a82.777,82.777,0,0,0-3.854,26.183v90.1H379.474l-0.31-196.371h21.511c17.347,0,25.827,8.085,25.827,21.947v5.776a54.234,54.234,0,0,1-.771,8.471H426.5C434.983,96.753,456.184,72.5,495.889,72.5c43.56,0,68.616,22.718,68.616,74.7Zm38.337-72c0,65.842,54.353,73.928,81.722,73.928a90.2,90.2,0,0,0,15.034-1.155v-42.74a45.015,45.015,0,0,1-8.866.771c-13.492,0-38.934-4.621-38.934-36.965V116.005h44.716V77.116H652.107V23.595h-47.8V77.116h-26.6v38.889h25.442v85.479ZM706,175.3c0,60.451,47.8,102.805,107.549,102.805,60.135,0,107.935-42.354,107.935-102.805,0-60.067-47.8-102.807-107.935-102.807C753.794,72.5,706,115.235,706,175.3Zm49.342,0c0-36.195,26.6-61.222,58.207-61.222,32,0,58.594,25.027,58.594,61.222,0,36.578-26.6,61.221-58.594,61.221C781.935,236.523,755.337,211.88,755.337,175.3ZM234.616,0.925A23.838,23.838,0,1,1,210.75,24.763,23.852,23.852,0,0,1,234.616.925Zm80.308,0a23.838,23.838,0,1,1-23.866,23.838A23.853,23.853,0,0,1,314.924.925ZM953.232,225.53a23.839,23.839,0,1,1-23.866,23.839A23.853,23.853,0,0,1,953.232,225.53Z"
		fill="rgba(255,255,255,.8)"/>
</svg>
