<?xml version="1.0" encoding="utf-8"?>
<!-- Generator: Adobe Illustrator 20.1.0, SVG Export Plug-In . SVG Version: 6.00 Build 0)  -->
<svg version="1.1" id="Layer_1" xmlns="http://www.w3.org/2000/svg" xmlns:xlink="http://www.w3.org/1999/xlink" x="0px" y="0px"
	 viewBox="0 0 33.5 34" style="enable-background:new 0 0 33.5 34;" xml:space="preserve">
<style type="text/css">
	.st0{fill:#FFFFFF;}
</style>
<g id="Page-1">
	<g id="netlify-callout-vertical-color-bg">
		<g id="Group" transform="translate(8.000000, 8.000000)">
			<path id="Combined-Shape-Copy" class="st0" d="M15.6,4c0.2,0.1,0.3,0.2,0.4,0.3c0,0,0,0,0,0h0L19.4,3c0,0,0,0,0,0s0,0,0,0
				l-3.1-3.1c0,0,0,0,0,0h0c0,0,0,0,0,0L15.6,4C15.6,4,15.6,4,15.6,4z M8.8,1.2C9,1.5,9.1,1.8,9.1,2.1c0,0,0,0,0,0L14,4.2h0
				c0,0,0,0,0,0c0.1-0.1,0.3-0.2,0.5-0.3c0,0,0,0,0,0l0.8-5c0,0,0,0,0,0l-3-3.1c0,0,0,0,0,0s0,0,0,0L8.8,1.2
				C8.8,1.2,8.8,1.2,8.8,1.2z M25.5,9l-5.2-5.3c0,0,0,0,0,0h0l-3.5,1.5c0,0,0,0,0,0c0,0,0,0,0,0l8.7,3.8h0C25.4,9.1,25.4,9.1,25.5,9
				L25.5,9C25.5,9,25.5,9,25.5,9z M24.6,9.8l-8.4-3.6h0c0,0,0,0,0,0c-0.2,0.3-0.6,0.5-1,0.6c0,0,0,0,0,0l-0.9,5.6c0,0,0,0,0,0
				c0.3,0.2,0.5,0.6,0.5,1c0,0,0,0,0,0l5.1,1.1h0c0,0,0,0,0,0L24.6,9.8C24.6,9.9,24.6,9.9,24.6,9.8C24.6,9.9,24.6,9.8,24.6,9.8z
				 M13.5,5.1l-4.6-2h0c0,0,0,0,0,0C8.5,3.6,8,3.9,7.4,3.9c-0.1,0-0.2,0-0.3,0h0c0,0,0,0,0,0L3.3,9.8c0,0,0,0,0,0.1c0,0,0,0,0,0h0
				l10.1-4.4c0,0,0,0,0,0V5.4V5.4C13.5,5.3,13.5,5.2,13.5,5.1C13.5,5.1,13.5,5.1,13.5,5.1z M19,15.4l-4.5-0.9h0c0,0,0,0,0,0
				c-0.2,0.2-0.4,0.4-0.6,0.5c0,0,0,0,0,0l-1.1,6.7c0,0,0,0,0,0.1h0c0,0,0,0,0,0l6.2-6.2C19,15.5,19,15.5,19,15.4
				C19,15.4,19,15.4,19,15.4z M12.8,15c-0.4-0.2-0.7-0.6-0.9-1c0,0,0,0,0,0l-8.3-1.7c0,0,0,0,0,0s0,0,0,0c0,0.1-0.1,0.1-0.1,0.2
				c0,0,0,0,0,0.1l7.5,11c0,0,0,0,0,0s0,0,0,0l0.5-0.5c0,0,0,0,0,0L12.8,15C12.8,15,12.8,15,12.8,15z M3.8,11.2
				C3.8,11.2,3.8,11.2,3.8,11.2l8.2,1.8h0c0,0,0,0,0,0c0.2-0.4,0.7-0.7,1.2-0.7c0,0,0,0,0,0l0.9-5.5c0,0,0,0,0,0
				c-0.1,0-0.1-0.1-0.2-0.2c0,0,0,0,0,0h0L3.8,10.8c0,0,0,0,0,0.1C3.8,11,3.8,11.1,3.8,11.2z M0.4,12.6c0-0.1-0.1-0.1-0.1-0.2
				c0,0,0,0,0,0h0l-3.5,1.5c0,0,0,0,0,0s0,0,0,0l1.7,1.7c0,0,0,0,0,0c0,0,0,0,0,0L0.4,12.6C0.4,12.6,0.4,12.6,0.4,12.6z M2.7,13.1
				C2.7,13.1,2.7,13.1,2.7,13.1L2.7,13.1c-0.3,0.1-0.6,0.1-0.8,0.1c-0.2,0-0.4,0-0.6-0.1h0c0,0,0,0,0,0l-2.1,3.2l0,0c0,0,0,0,0,0.1
				L8.5,26c0,0,0,0,0,0c0,0,0,0,0,0l1.7-1.7c0,0,0,0,0-0.1L2.7,13.1z M1.4,9.4C1.4,9.4,1.4,9.4,1.4,9.4L1.4,9.4c0.2,0,0.4,0,0.5,0
				c0.2,0,0.3,0,0.5,0.1h0c0,0,0,0,0,0l3.8-6c0,0,0,0,0-0.1C5.9,3,5.8,2.6,5.8,2.2c0-0.1,0-0.3,0-0.4c0,0,0,0,0-0.1
				C5.3,1.5,1-0.3,1-0.3h0c0,0,0,0,0,0l-3.6,3.7c0,0,0,0,0,0.1L1.4,9.4z M1.8-1.1c0,0,4.3,1.9,4.5,1.9h0c0,0,0,0,0,0
				C6.6,0.6,7,0.5,7.4,0.5c0.2,0,0.4,0,0.6,0.1h0c0,0,0,0,0,0L11.5-5c0,0,0,0,0-0.1L8.6-8c0,0,0,0,0,0s0,0,0,0L1.8-1.1
				C1.8-1.1,1.8-1.1,1.8-1.1C1.8-1.1,1.8-1.1,1.8-1.1z M0.1,10.4C0.1,10.4,0.1,10.4,0.1,10.4c0.1-0.2,0.3-0.4,0.4-0.5c0,0,0,0,0-0.1
				c0-0.1-3.9-5.7-3.9-5.7c0,0,0,0,0,0c0,0,0,0,0,0L-8,8.7c0,0,0,0,0,0s0,0,0,0L0.1,10.4C0.1,10.4,0.1,10.4,0.1,10.4z M-0.3,11.4
				C-0.3,11.4-0.3,11.4-0.3,11.4l-7-1.5c0,0,0,0,0,0c0,0,0,0,0,0c0,0,0,0,0,0.1l3.1,3.1c0,0,0,0,0,0h0L-0.3,11.4
				C-0.3,11.5-0.3,11.4-0.3,11.4z"/>
		</g>
	</g>
</g>
</svg>
